<svg role="img" viewBox="0 0 24 24" xmlns="http://www.w3.org/2000/svg"><path d="M11.233 2.115c.677-.076 1.488.13 2.17.653.642.522 1.05 1.293 1.157 2.155L14.6 5h3.693l-.427-1.393c-.227-.723-.623-1.353-1.15-1.85-.503-.497-1.11-.85-1.767-1.057l-1.423-.427v1.842zm-5.467.433c-.456.246-.867.57-1.203.957-.337.387-.6.827-.777 1.303l-.44 1.256h3.68l.19-1.077c.073-.41.226-.803.447-1.157.23-.343.513-.64.843-.883L7.14 2.59v-.042zm14.19.16l-3.327 3.33v3.313h2.646L21.465 7.15l-1.51-4.444zm-7.616.732c-.524.382-.953.86-1.25 1.397-.306.55-.473 1.16-.484 1.78l-.013 1.13h-3.69v3.42l3.69-.02.016 1.2c.007.63.183 1.246.505 1.8.312.544.752 1.01 1.282 1.376l2.12-2.12c-.22-.24-.38-.517-.468-.817-.088-.308-.106-.63-.053-.948l.126-1.21h2.17l.08.794c.05.413.197.808.43 1.163.22.343.51.64.846.883l2.114-2.114-1.356-4.04h-4.326l-.012-1.13c-.01-.63-.18-1.25-.504-1.8-.31-.54-.746-1.01-1.274-1.375zM8.33 6.942H4.63v3.444h3.684l-.015-1.075c-.015-.623.153-1.236.47-1.784a3.11 3.11 0 0 1 1.24-1.38L8.33 6.942zm-5.594 1.63L1.09 13.064l1.455 4.31 3.238-3.24V10.82h-3.05zm14.28 2.052h4.32l1.372 4.098-1.47 4.352L17.016 10.624zm-14.34 3.73l.425 1.236c.21.61.545 1.16 1.002 1.625.446.463.972.825 1.556 1.077L7.433 19.49V17.65L6.02 16.237c-.36-.36-.628-.802-.79-1.286l-.508-1.48H1.61c.21 1.196 1.066 3.167 1.066 3.167zM8.82 16.14l1.385 1.385c.48.48.86 1.036 1.13 1.646.26.6.4 1.246.4 1.9l.006 1.106h-3.69V18.73c0-.62-.17-1.23-.483-1.78a3.102 3.102 0 0 0-1.255-1.39l1.63-1.63h.877z"/></svg>
