<svg role="img" viewBox="0 0 24 24" xmlns="http://www.w3.org/2000/svg"><path d="M12 0C5.373 0 0 5.373 0 12s5.373 12 12 12 12-5.373 12-12S18.627 0 12 0zm0 22.06c-5.556 0-10.06-4.504-10.06-10.06S6.444 1.94 12 1.94s10.06 4.504 10.06 10.06-4.504 10.06-10.06 10.06zM9.548 11.23l-3.352 9.247c1.47 1.026 3.486 1.636 5.804 1.636 1.458 0 2.836-.296 4.084-.827L9.548 11.23zm6.602-.45c.46 0 .807.247.986.643.203.44.203.955.03 1.543l-2.617 7.472a8.038 8.038 0 003.356-6.52c0-1.847-.648-3.48-1.755-4.88zM4.14 12.003c0-1.464.407-2.832 1.12-4.004l3.197 8.847C6.012 15.65 4.14 14.022 4.14 12.003zm6.056-6.07c.365-.015.683-.173.914-.424l.024-.025a1.21 1.21 0 00.32-.822c0-.36-.144-.694-.405-.94-.258-.246-.6-.385-.964-.395h-.033c-.36.006-.688.156-.934.41l-.01.014c-.234.246-.372.573-.372.934 0 .365.143.7.4.954.264.256.623.402.997.414.015 0 .033 0 .063-.002zm1.666 4.21c-.347-1.157-1.168-2.68-1.713-3.69-.533-1-1.026-1.634-1.334-1.884-.336-.27-.678-.45-1.01-.527a2.277 2.277 0 00-.477-.04h-.056c-.035 0-.074.005-.11.01-.58.12-.998.682-1.015 1.272 0 .546.335 1.02.824 1.2.096.035.195.053.298.053h1.86l2.134 5.92-1.862 5.568 2.05-5.69-2.072-5.798z"/></svg>
